<mxfile host="app.diagrams.net" modified="2023-04-11T03:17:35.511Z" agent="Mozilla/5.0 (Windows NT 10.0; Win64; x64) AppleWebKit/537.36 (KHTML, like Gecko) Chrome/112.0.0.0 Safari/537.36" etag="qON_zvz1pgOndMy5Ysr5" version="21.1.5" type="device">
  <diagram id="R2lEEEUBdFMjLlhIrx00" name="Page-1">
    <mxGraphModel dx="4587" dy="3086" grid="1" gridSize="10" guides="1" tooltips="1" connect="1" arrows="1" fold="1" page="1" pageScale="1" pageWidth="827" pageHeight="1169" math="0" shadow="0" extFonts="Permanent Marker^https://fonts.googleapis.com/css?family=Permanent+Marker">
      <root>
        <mxCell id="0" />
        <mxCell id="1" parent="0" />
        <mxCell id="RjHe8IgNaL4Ij2t6XCh8-1" value="User" style="swimlane;childLayout=stackLayout;horizontal=1;startSize=50;horizontalStack=0;rounded=1;fontSize=14;fontStyle=0;strokeWidth=2;resizeParent=0;resizeLast=1;shadow=0;dashed=0;align=center;arcSize=4;whiteSpace=wrap;html=1;labelBackgroundColor=none;fillColor=#A8DADC;strokeColor=#457B9D;fontColor=#1D3557;" parent="1" vertex="1">
          <mxGeometry x="150" y="-240" width="160" height="120" as="geometry" />
        </mxCell>
        <mxCell id="RjHe8IgNaL4Ij2t6XCh8-2" value="&lt;u&gt;Email&lt;/u&gt;&lt;br&gt;Name&lt;br&gt;Type&lt;br&gt;AddressID{}" style="align=left;strokeColor=none;fillColor=none;spacingLeft=4;fontSize=12;verticalAlign=top;resizable=0;rotatable=0;part=1;html=1;labelBackgroundColor=none;fontColor=#1D3557;" parent="RjHe8IgNaL4Ij2t6XCh8-1" vertex="1">
          <mxGeometry y="50" width="160" height="70" as="geometry" />
        </mxCell>
        <mxCell id="RjHe8IgNaL4Ij2t6XCh8-7" value="Renter" style="swimlane;childLayout=stackLayout;horizontal=1;startSize=50;horizontalStack=0;rounded=1;fontSize=14;fontStyle=0;strokeWidth=2;resizeParent=0;resizeLast=1;shadow=0;dashed=0;align=center;arcSize=4;whiteSpace=wrap;html=1;labelBackgroundColor=none;fillColor=#A8DADC;strokeColor=#457B9D;fontColor=#1D3557;" parent="1" vertex="1">
          <mxGeometry x="-140" y="80" width="160" height="130" as="geometry" />
        </mxCell>
        <mxCell id="RjHe8IgNaL4Ij2t6XCh8-8" value="&lt;u&gt;RID&lt;/u&gt;&lt;br&gt;Name&lt;br&gt;Move-in-date&lt;br&gt;preferred location&lt;br&gt;Budget" style="align=left;strokeColor=none;fillColor=none;spacingLeft=4;fontSize=12;verticalAlign=top;resizable=0;rotatable=0;part=1;html=1;labelBackgroundColor=none;fontColor=#1D3557;" parent="RjHe8IgNaL4Ij2t6XCh8-7" vertex="1">
          <mxGeometry y="50" width="160" height="80" as="geometry" />
        </mxCell>
        <mxCell id="RjHe8IgNaL4Ij2t6XCh8-11" value="Agent" style="swimlane;childLayout=stackLayout;horizontal=1;startSize=50;horizontalStack=0;rounded=1;fontSize=14;fontStyle=0;strokeWidth=2;resizeParent=0;resizeLast=1;shadow=0;dashed=0;align=center;arcSize=4;whiteSpace=wrap;html=1;labelBackgroundColor=none;fillColor=#A8DADC;strokeColor=#457B9D;fontColor=#1D3557;" parent="1" vertex="1">
          <mxGeometry x="425" y="80" width="160" height="140" as="geometry" />
        </mxCell>
        <mxCell id="RjHe8IgNaL4Ij2t6XCh8-12" value="&lt;u&gt;AgID&lt;/u&gt;&lt;br&gt;Name&lt;br&gt;Job title&lt;br&gt;Agency Name&lt;br&gt;Phone" style="align=left;strokeColor=none;fillColor=none;spacingLeft=4;fontSize=12;verticalAlign=top;resizable=0;rotatable=0;part=1;html=1;labelBackgroundColor=none;fontColor=#1D3557;" parent="RjHe8IgNaL4Ij2t6XCh8-11" vertex="1">
          <mxGeometry y="50" width="160" height="90" as="geometry" />
        </mxCell>
        <mxCell id="RjHe8IgNaL4Ij2t6XCh8-16" value="Property" style="swimlane;childLayout=stackLayout;horizontal=1;startSize=50;horizontalStack=0;rounded=1;fontSize=14;fontStyle=0;strokeWidth=2;resizeParent=0;resizeLast=1;shadow=0;dashed=0;align=center;arcSize=4;whiteSpace=wrap;html=1;labelBackgroundColor=none;fillColor=#A8DADC;strokeColor=#457B9D;fontColor=#1D3557;" parent="1" vertex="1">
          <mxGeometry x="425" y="470" width="160" height="190" as="geometry" />
        </mxCell>
        <mxCell id="RjHe8IgNaL4Ij2t6XCh8-17" value="&lt;u&gt;PId&lt;/u&gt;&lt;br&gt;Type&lt;br&gt;Location&lt;br&gt;City&lt;br&gt;State&lt;br&gt;ZipCode&lt;br&gt;Description&lt;br&gt;Price&lt;br&gt;Availability" style="align=left;strokeColor=none;fillColor=none;spacingLeft=4;fontSize=12;verticalAlign=top;resizable=0;rotatable=0;part=1;html=1;labelBackgroundColor=none;fontColor=#1D3557;" parent="RjHe8IgNaL4Ij2t6XCh8-16" vertex="1">
          <mxGeometry y="50" width="160" height="140" as="geometry" />
        </mxCell>
        <mxCell id="RjHe8IgNaL4Ij2t6XCh8-18" value="House" style="swimlane;childLayout=stackLayout;horizontal=1;startSize=50;horizontalStack=0;rounded=1;fontSize=14;fontStyle=0;strokeWidth=2;resizeParent=0;resizeLast=1;shadow=0;dashed=0;align=center;arcSize=4;whiteSpace=wrap;html=1;labelBackgroundColor=none;fillColor=#A8DADC;strokeColor=#457B9D;fontColor=#1D3557;" parent="1" vertex="1">
          <mxGeometry x="360" y="900" width="160" height="120" as="geometry" />
        </mxCell>
        <mxCell id="RjHe8IgNaL4Ij2t6XCh8-19" value="&lt;u&gt;PId&lt;/u&gt;&lt;br&gt;Location&lt;br&gt;No_of_Rooms&lt;br&gt;Sq_foot" style="align=left;strokeColor=none;fillColor=none;spacingLeft=4;fontSize=12;verticalAlign=top;resizable=0;rotatable=0;part=1;html=1;labelBackgroundColor=none;fontColor=#1D3557;" parent="RjHe8IgNaL4Ij2t6XCh8-18" vertex="1">
          <mxGeometry y="50" width="160" height="70" as="geometry" />
        </mxCell>
        <mxCell id="RjHe8IgNaL4Ij2t6XCh8-20" value="Appartments" style="swimlane;childLayout=stackLayout;horizontal=1;startSize=50;horizontalStack=0;rounded=1;fontSize=14;fontStyle=0;strokeWidth=2;resizeParent=0;resizeLast=1;shadow=0;dashed=0;align=center;arcSize=4;whiteSpace=wrap;html=1;labelBackgroundColor=none;fillColor=#A8DADC;strokeColor=#457B9D;fontColor=#1D3557;" parent="1" vertex="1">
          <mxGeometry x="585" y="900" width="160" height="130" as="geometry" />
        </mxCell>
        <mxCell id="RjHe8IgNaL4Ij2t6XCh8-21" value="&lt;u&gt;Pid&lt;/u&gt;&lt;br&gt;Location&lt;br&gt;No_of_Rooms&lt;br&gt;Sq_foot&lt;br&gt;Building_type" style="align=left;strokeColor=none;fillColor=none;spacingLeft=4;fontSize=12;verticalAlign=top;resizable=0;rotatable=0;part=1;html=1;labelBackgroundColor=none;fontColor=#1D3557;" parent="RjHe8IgNaL4Ij2t6XCh8-20" vertex="1">
          <mxGeometry y="50" width="160" height="80" as="geometry" />
        </mxCell>
        <mxCell id="RjHe8IgNaL4Ij2t6XCh8-23" value="Commercial Buildings" style="swimlane;childLayout=stackLayout;horizontal=1;startSize=50;horizontalStack=0;rounded=1;fontSize=14;fontStyle=0;strokeWidth=2;resizeParent=0;resizeLast=1;shadow=0;dashed=0;align=center;arcSize=4;whiteSpace=wrap;html=1;labelBackgroundColor=none;fillColor=#A8DADC;strokeColor=#457B9D;fontColor=#1D3557;" parent="1" vertex="1">
          <mxGeometry x="820" y="900" width="160" height="120" as="geometry" />
        </mxCell>
        <mxCell id="RjHe8IgNaL4Ij2t6XCh8-24" value="&lt;u&gt;Pid&lt;br&gt;&lt;/u&gt;Location&lt;br&gt;Sq_foot&lt;br&gt;Business_type" style="align=left;strokeColor=none;fillColor=none;spacingLeft=4;fontSize=12;verticalAlign=top;resizable=0;rotatable=0;part=1;html=1;labelBackgroundColor=none;fontColor=#1D3557;" parent="RjHe8IgNaL4Ij2t6XCh8-23" vertex="1">
          <mxGeometry y="50" width="160" height="70" as="geometry" />
        </mxCell>
        <mxCell id="RjHe8IgNaL4Ij2t6XCh8-29" value="Booking" style="swimlane;childLayout=stackLayout;horizontal=1;startSize=50;horizontalStack=0;rounded=1;fontSize=14;fontStyle=0;strokeWidth=2;resizeParent=0;resizeLast=1;shadow=0;dashed=0;align=center;arcSize=4;whiteSpace=wrap;html=1;labelBackgroundColor=none;fillColor=#A8DADC;strokeColor=#457B9D;fontColor=#1D3557;" parent="1" vertex="1">
          <mxGeometry x="-340" y="605" width="160" height="160" as="geometry" />
        </mxCell>
        <mxCell id="RjHe8IgNaL4Ij2t6XCh8-30" value="&lt;u&gt;Bid&lt;/u&gt;&lt;br&gt;&lt;u&gt;Email&lt;/u&gt;&lt;br&gt;&lt;u&gt;PId&lt;br&gt;&lt;/u&gt;Name&lt;br&gt;CreditCardNumber&lt;br&gt;Booking Amount" style="align=left;strokeColor=none;fillColor=none;spacingLeft=4;fontSize=12;verticalAlign=top;resizable=0;rotatable=0;part=1;html=1;labelBackgroundColor=none;fontColor=#1D3557;" parent="RjHe8IgNaL4Ij2t6XCh8-29" vertex="1">
          <mxGeometry y="50" width="160" height="110" as="geometry" />
        </mxCell>
        <mxCell id="RjHe8IgNaL4Ij2t6XCh8-37" style="edgeStyle=orthogonalEdgeStyle;rounded=0;orthogonalLoop=1;jettySize=auto;html=1;exitX=0;exitY=0.5;exitDx=0;exitDy=0;entryX=0.5;entryY=0;entryDx=0;entryDy=0;labelBackgroundColor=none;strokeColor=#457B9D;fontColor=default;" parent="1" source="RjHe8IgNaL4Ij2t6XCh8-35" target="RjHe8IgNaL4Ij2t6XCh8-7" edge="1">
          <mxGeometry relative="1" as="geometry" />
        </mxCell>
        <mxCell id="RjHe8IgNaL4Ij2t6XCh8-38" style="edgeStyle=orthogonalEdgeStyle;rounded=0;orthogonalLoop=1;jettySize=auto;html=1;exitX=1;exitY=0.5;exitDx=0;exitDy=0;entryX=0.5;entryY=0;entryDx=0;entryDy=0;labelBackgroundColor=none;strokeColor=#457B9D;fontColor=default;" parent="1" source="RjHe8IgNaL4Ij2t6XCh8-35" target="RjHe8IgNaL4Ij2t6XCh8-11" edge="1">
          <mxGeometry relative="1" as="geometry" />
        </mxCell>
        <mxCell id="RjHe8IgNaL4Ij2t6XCh8-35" value="Can be" style="shape=rhombus;perimeter=rhombusPerimeter;whiteSpace=wrap;html=1;align=center;labelBackgroundColor=none;fillColor=#A8DADC;strokeColor=#457B9D;fontColor=#1D3557;" parent="1" vertex="1">
          <mxGeometry x="170" y="-50" width="120" height="60" as="geometry" />
        </mxCell>
        <mxCell id="RjHe8IgNaL4Ij2t6XCh8-36" style="edgeStyle=orthogonalEdgeStyle;rounded=0;orthogonalLoop=1;jettySize=auto;html=1;exitX=0.5;exitY=1;exitDx=0;exitDy=0;entryX=0.5;entryY=0;entryDx=0;entryDy=0;labelBackgroundColor=none;strokeColor=#457B9D;fontColor=default;" parent="1" source="RjHe8IgNaL4Ij2t6XCh8-2" target="RjHe8IgNaL4Ij2t6XCh8-35" edge="1">
          <mxGeometry relative="1" as="geometry" />
        </mxCell>
        <mxCell id="RjHe8IgNaL4Ij2t6XCh8-170" style="edgeStyle=orthogonalEdgeStyle;rounded=0;orthogonalLoop=1;jettySize=auto;html=1;exitX=0.5;exitY=0;exitDx=0;exitDy=0;entryX=0.5;entryY=1;entryDx=0;entryDy=0;strokeColor=#457B9D;fontColor=default;fillColor=#A8DADC;labelBackgroundColor=none;" parent="1" source="RjHe8IgNaL4Ij2t6XCh8-43" target="RjHe8IgNaL4Ij2t6XCh8-11" edge="1">
          <mxGeometry relative="1" as="geometry" />
        </mxCell>
        <mxCell id="RjHe8IgNaL4Ij2t6XCh8-43" value="Assign" style="shape=rhombus;perimeter=rhombusPerimeter;whiteSpace=wrap;html=1;align=center;labelBackgroundColor=none;fillColor=#A8DADC;strokeColor=#457B9D;fontColor=#1D3557;" parent="1" vertex="1">
          <mxGeometry x="445" y="310" width="120" height="60" as="geometry" />
        </mxCell>
        <mxCell id="RjHe8IgNaL4Ij2t6XCh8-167" style="edgeStyle=orthogonalEdgeStyle;rounded=0;orthogonalLoop=1;jettySize=auto;html=1;exitX=0.5;exitY=0;exitDx=0;exitDy=0;entryX=0.5;entryY=1;entryDx=0;entryDy=0;strokeColor=#457B9D;fontColor=default;fillColor=#A8DADC;labelBackgroundColor=none;" parent="1" source="RjHe8IgNaL4Ij2t6XCh8-55" target="RjHe8IgNaL4Ij2t6XCh8-8" edge="1">
          <mxGeometry relative="1" as="geometry" />
        </mxCell>
        <mxCell id="RjHe8IgNaL4Ij2t6XCh8-55" value="Buys" style="shape=rhombus;perimeter=rhombusPerimeter;whiteSpace=wrap;html=1;align=center;labelBackgroundColor=none;fillColor=#A8DADC;strokeColor=#457B9D;fontColor=#1D3557;" parent="1" vertex="1">
          <mxGeometry x="-120" y="520" width="120" height="60" as="geometry" />
        </mxCell>
        <mxCell id="RjHe8IgNaL4Ij2t6XCh8-61" value="" style="shape=link;html=1;rounded=0;entryX=0;entryY=0.25;entryDx=0;entryDy=0;exitX=1;exitY=0.5;exitDx=0;exitDy=0;labelBackgroundColor=none;strokeColor=#457B9D;fontColor=default;" parent="1" source="RjHe8IgNaL4Ij2t6XCh8-55" target="RjHe8IgNaL4Ij2t6XCh8-17" edge="1">
          <mxGeometry relative="1" as="geometry">
            <mxPoint x="60" y="550" as="sourcePoint" />
            <mxPoint x="220" y="550" as="targetPoint" />
          </mxGeometry>
        </mxCell>
        <mxCell id="RjHe8IgNaL4Ij2t6XCh8-72" value="BookingInfo" style="shape=rhombus;perimeter=rhombusPerimeter;whiteSpace=wrap;html=1;align=center;labelBackgroundColor=none;fillColor=#A8DADC;strokeColor=#457B9D;fontColor=#1D3557;" parent="1" vertex="1">
          <mxGeometry x="-320" y="340" width="120" height="60" as="geometry" />
        </mxCell>
        <mxCell id="RjHe8IgNaL4Ij2t6XCh8-141" style="edgeStyle=orthogonalEdgeStyle;rounded=0;orthogonalLoop=1;jettySize=auto;html=1;exitX=1;exitY=0.5;exitDx=0;exitDy=0;entryX=0.5;entryY=1;entryDx=0;entryDy=0;labelBackgroundColor=none;strokeColor=#457B9D;fontColor=default;" parent="1" source="RjHe8IgNaL4Ij2t6XCh8-76" target="RjHe8IgNaL4Ij2t6XCh8-17" edge="1">
          <mxGeometry relative="1" as="geometry" />
        </mxCell>
        <mxCell id="RjHe8IgNaL4Ij2t6XCh8-142" style="edgeStyle=orthogonalEdgeStyle;rounded=0;orthogonalLoop=1;jettySize=auto;html=1;exitX=0;exitY=0.5;exitDx=0;exitDy=0;entryX=1;entryY=0.5;entryDx=0;entryDy=0;labelBackgroundColor=none;strokeColor=#457B9D;fontColor=default;" parent="1" source="RjHe8IgNaL4Ij2t6XCh8-76" target="RjHe8IgNaL4Ij2t6XCh8-30" edge="1">
          <mxGeometry relative="1" as="geometry" />
        </mxCell>
        <mxCell id="RjHe8IgNaL4Ij2t6XCh8-76" value="Sold" style="shape=rhombus;perimeter=rhombusPerimeter;whiteSpace=wrap;html=1;align=center;labelBackgroundColor=none;fillColor=#A8DADC;strokeColor=#457B9D;fontColor=#1D3557;" parent="1" vertex="1">
          <mxGeometry x="40" y="680" width="120" height="60" as="geometry" />
        </mxCell>
        <mxCell id="RjHe8IgNaL4Ij2t6XCh8-83" style="edgeStyle=orthogonalEdgeStyle;rounded=0;orthogonalLoop=1;jettySize=auto;html=1;exitX=0.5;exitY=1;exitDx=0;exitDy=0;entryX=0.5;entryY=0;entryDx=0;entryDy=0;labelBackgroundColor=none;strokeColor=#457B9D;fontColor=default;" parent="1" source="RjHe8IgNaL4Ij2t6XCh8-81" target="RjHe8IgNaL4Ij2t6XCh8-18" edge="1">
          <mxGeometry relative="1" as="geometry">
            <Array as="points">
              <mxPoint x="665" y="840" />
              <mxPoint x="440" y="840" />
            </Array>
          </mxGeometry>
        </mxCell>
        <mxCell id="RjHe8IgNaL4Ij2t6XCh8-84" style="edgeStyle=orthogonalEdgeStyle;rounded=0;orthogonalLoop=1;jettySize=auto;html=1;exitX=0.5;exitY=1;exitDx=0;exitDy=0;entryX=0.5;entryY=0;entryDx=0;entryDy=0;labelBackgroundColor=none;strokeColor=#457B9D;fontColor=default;" parent="1" source="RjHe8IgNaL4Ij2t6XCh8-81" target="RjHe8IgNaL4Ij2t6XCh8-20" edge="1">
          <mxGeometry relative="1" as="geometry" />
        </mxCell>
        <mxCell id="RjHe8IgNaL4Ij2t6XCh8-85" style="edgeStyle=orthogonalEdgeStyle;rounded=0;orthogonalLoop=1;jettySize=auto;html=1;exitX=0.5;exitY=1;exitDx=0;exitDy=0;entryX=0.688;entryY=0.083;entryDx=0;entryDy=0;entryPerimeter=0;labelBackgroundColor=none;strokeColor=#457B9D;fontColor=default;" parent="1" source="RjHe8IgNaL4Ij2t6XCh8-81" target="RjHe8IgNaL4Ij2t6XCh8-23" edge="1">
          <mxGeometry relative="1" as="geometry">
            <Array as="points">
              <mxPoint x="665" y="840" />
              <mxPoint x="930" y="840" />
            </Array>
          </mxGeometry>
        </mxCell>
        <mxCell id="RjHe8IgNaL4Ij2t6XCh8-146" style="edgeStyle=orthogonalEdgeStyle;rounded=0;orthogonalLoop=1;jettySize=auto;html=1;exitX=0.5;exitY=0;exitDx=0;exitDy=0;entryX=1;entryY=0.5;entryDx=0;entryDy=0;labelBackgroundColor=none;strokeColor=#457B9D;fontColor=default;" parent="1" source="RjHe8IgNaL4Ij2t6XCh8-81" target="RjHe8IgNaL4Ij2t6XCh8-17" edge="1">
          <mxGeometry relative="1" as="geometry" />
        </mxCell>
        <mxCell id="RjHe8IgNaL4Ij2t6XCh8-81" value="Types" style="shape=rhombus;perimeter=rhombusPerimeter;whiteSpace=wrap;html=1;align=center;labelBackgroundColor=none;fillColor=#A8DADC;strokeColor=#457B9D;fontColor=#1D3557;" parent="1" vertex="1">
          <mxGeometry x="605" y="720" width="120" height="50" as="geometry" />
        </mxCell>
        <mxCell id="RjHe8IgNaL4Ij2t6XCh8-87" value="Rewards" style="swimlane;childLayout=stackLayout;horizontal=1;startSize=50;horizontalStack=0;rounded=1;fontSize=14;fontStyle=0;strokeWidth=2;resizeParent=0;resizeLast=1;shadow=0;dashed=0;align=center;arcSize=4;whiteSpace=wrap;html=1;labelBackgroundColor=none;fillColor=#A8DADC;strokeColor=#457B9D;fontColor=#1D3557;" parent="1" vertex="1">
          <mxGeometry x="-1100" y="330" width="160" height="120" as="geometry" />
        </mxCell>
        <mxCell id="RjHe8IgNaL4Ij2t6XCh8-88" value="&lt;u&gt;Email&lt;br&gt;&lt;/u&gt;Name&lt;br&gt;Reward points" style="align=left;strokeColor=none;fillColor=none;spacingLeft=4;fontSize=12;verticalAlign=top;resizable=0;rotatable=0;part=1;html=1;labelBackgroundColor=none;fontColor=#1D3557;" parent="RjHe8IgNaL4Ij2t6XCh8-87" vertex="1">
          <mxGeometry y="50" width="160" height="70" as="geometry" />
        </mxCell>
        <mxCell id="RjHe8IgNaL4Ij2t6XCh8-127" style="edgeStyle=orthogonalEdgeStyle;rounded=0;orthogonalLoop=1;jettySize=auto;html=1;exitX=0.5;exitY=0;exitDx=0;exitDy=0;entryX=0.5;entryY=1;entryDx=0;entryDy=0;labelBackgroundColor=none;strokeColor=#457B9D;fontColor=default;" parent="1" source="RjHe8IgNaL4Ij2t6XCh8-106" target="RjHe8IgNaL4Ij2t6XCh8-88" edge="1">
          <mxGeometry relative="1" as="geometry" />
        </mxCell>
        <mxCell id="RjHe8IgNaL4Ij2t6XCh8-143" style="edgeStyle=orthogonalEdgeStyle;rounded=0;orthogonalLoop=1;jettySize=auto;html=1;exitX=0.5;exitY=1;exitDx=0;exitDy=0;entryX=0.5;entryY=1;entryDx=0;entryDy=0;labelBackgroundColor=none;strokeColor=#457B9D;fontColor=default;" parent="1" source="RjHe8IgNaL4Ij2t6XCh8-106" target="RjHe8IgNaL4Ij2t6XCh8-30" edge="1">
          <mxGeometry relative="1" as="geometry" />
        </mxCell>
        <mxCell id="RjHe8IgNaL4Ij2t6XCh8-106" value="Earns" style="shape=rhombus;double=1;perimeter=rhombusPerimeter;whiteSpace=wrap;html=1;align=center;labelBackgroundColor=none;fillColor=#A8DADC;strokeColor=#457B9D;fontColor=#1D3557;" parent="1" vertex="1">
          <mxGeometry x="-1080" y="660" width="120" height="60" as="geometry" />
        </mxCell>
        <mxCell id="RjHe8IgNaL4Ij2t6XCh8-107" value="Register" style="shape=rhombus;perimeter=rhombusPerimeter;whiteSpace=wrap;html=1;align=center;labelBackgroundColor=none;fillColor=#A8DADC;strokeColor=#457B9D;fontColor=#1D3557;" parent="1" vertex="1">
          <mxGeometry x="-1080" y="50" width="120" height="60" as="geometry" />
        </mxCell>
        <mxCell id="RjHe8IgNaL4Ij2t6XCh8-174" style="edgeStyle=orthogonalEdgeStyle;rounded=0;orthogonalLoop=1;jettySize=auto;html=1;exitX=0;exitY=0.5;exitDx=0;exitDy=0;entryX=1;entryY=0.25;entryDx=0;entryDy=0;strokeColor=#457B9D;fontColor=default;fillColor=#A8DADC;labelBackgroundColor=none;" parent="1" source="RjHe8IgNaL4Ij2t6XCh8-112" target="RjHe8IgNaL4Ij2t6XCh8-17" edge="1">
          <mxGeometry relative="1" as="geometry" />
        </mxCell>
        <mxCell id="RjHe8IgNaL4Ij2t6XCh8-175" style="edgeStyle=orthogonalEdgeStyle;rounded=0;orthogonalLoop=1;jettySize=auto;html=1;exitX=1;exitY=0.5;exitDx=0;exitDy=0;entryX=0;entryY=0.5;entryDx=0;entryDy=0;strokeColor=#457B9D;fontColor=default;fillColor=#A8DADC;labelBackgroundColor=none;" parent="1" source="RjHe8IgNaL4Ij2t6XCh8-112" target="RjHe8IgNaL4Ij2t6XCh8-150" edge="1">
          <mxGeometry relative="1" as="geometry" />
        </mxCell>
        <mxCell id="RjHe8IgNaL4Ij2t6XCh8-112" value="More Information" style="shape=rhombus;double=1;perimeter=rhombusPerimeter;whiteSpace=wrap;html=1;align=center;labelBackgroundColor=none;fillColor=#A8DADC;strokeColor=#457B9D;fontColor=#1D3557;" parent="1" vertex="1">
          <mxGeometry x="780" y="480" width="120" height="60" as="geometry" />
        </mxCell>
        <mxCell id="RjHe8IgNaL4Ij2t6XCh8-171" style="edgeStyle=orthogonalEdgeStyle;rounded=0;orthogonalLoop=1;jettySize=auto;html=1;exitX=0.5;exitY=0;exitDx=0;exitDy=0;entryX=0.995;entryY=0.364;entryDx=0;entryDy=0;entryPerimeter=0;strokeColor=#457B9D;fontColor=default;fillColor=#A8DADC;labelBackgroundColor=none;" parent="1" source="RjHe8IgNaL4Ij2t6XCh8-115" target="RjHe8IgNaL4Ij2t6XCh8-17" edge="1">
          <mxGeometry relative="1" as="geometry" />
        </mxCell>
        <mxCell id="RjHe8IgNaL4Ij2t6XCh8-172" style="edgeStyle=orthogonalEdgeStyle;rounded=0;orthogonalLoop=1;jettySize=auto;html=1;exitX=1;exitY=0.5;exitDx=0;exitDy=0;entryX=0;entryY=0.25;entryDx=0;entryDy=0;strokeColor=#457B9D;fontColor=default;fillColor=#A8DADC;labelBackgroundColor=none;" parent="1" source="RjHe8IgNaL4Ij2t6XCh8-115" target="RjHe8IgNaL4Ij2t6XCh8-154" edge="1">
          <mxGeometry relative="1" as="geometry" />
        </mxCell>
        <mxCell id="RjHe8IgNaL4Ij2t6XCh8-115" value="Neighborhood Details" style="shape=rhombus;double=1;perimeter=rhombusPerimeter;whiteSpace=wrap;html=1;align=center;labelBackgroundColor=none;fillColor=#A8DADC;strokeColor=#457B9D;fontColor=#1D3557;" parent="1" vertex="1">
          <mxGeometry x="780" y="640" width="120" height="70" as="geometry" />
        </mxCell>
        <mxCell id="RjHe8IgNaL4Ij2t6XCh8-129" value="" style="shape=link;html=1;rounded=0;exitX=0.5;exitY=1;exitDx=0;exitDy=0;entryX=0.42;entryY=0.012;entryDx=0;entryDy=0;labelBackgroundColor=none;strokeColor=#457B9D;fontColor=default;entryPerimeter=0;" parent="1" source="HbPjnHL6BBJNbYbjvd7j-28" target="HbPjnHL6BBJNbYbjvd7j-29" edge="1">
          <mxGeometry relative="1" as="geometry">
            <mxPoint x="-730" y="160" as="sourcePoint" />
            <mxPoint x="-730" y="350" as="targetPoint" />
          </mxGeometry>
        </mxCell>
        <mxCell id="RjHe8IgNaL4Ij2t6XCh8-137" value="" style="shape=link;html=1;rounded=0;exitX=0.5;exitY=1;exitDx=0;exitDy=0;entryX=0.5;entryY=0;entryDx=0;entryDy=0;labelBackgroundColor=none;strokeColor=#457B9D;fontColor=default;" parent="1" source="RjHe8IgNaL4Ij2t6XCh8-107" target="RjHe8IgNaL4Ij2t6XCh8-87" edge="1">
          <mxGeometry relative="1" as="geometry">
            <mxPoint x="-330" y="390" as="sourcePoint" />
            <mxPoint x="-170" y="390" as="targetPoint" />
          </mxGeometry>
        </mxCell>
        <mxCell id="RjHe8IgNaL4Ij2t6XCh8-144" value="" style="shape=link;html=1;rounded=0;exitX=0.5;exitY=1;exitDx=0;exitDy=0;entryX=0.5;entryY=0;entryDx=0;entryDy=0;labelBackgroundColor=none;strokeColor=#457B9D;fontColor=default;" parent="1" source="RjHe8IgNaL4Ij2t6XCh8-72" target="RjHe8IgNaL4Ij2t6XCh8-29" edge="1">
          <mxGeometry relative="1" as="geometry">
            <mxPoint x="-420" y="550" as="sourcePoint" />
            <mxPoint x="-260" y="600" as="targetPoint" />
          </mxGeometry>
        </mxCell>
        <mxCell id="RjHe8IgNaL4Ij2t6XCh8-150" value="Additional Info&lt;br&gt;&lt;br&gt;&lt;br&gt;Crime Rate&lt;br&gt;Schools nearby" style="shape=ext;double=1;rounded=0;whiteSpace=wrap;html=1;labelBackgroundColor=none;fillColor=#A8DADC;strokeColor=#457B9D;fontColor=#1D3557;" parent="1" vertex="1">
          <mxGeometry x="1030" y="470" width="190" height="115" as="geometry" />
        </mxCell>
        <mxCell id="RjHe8IgNaL4Ij2t6XCh8-151" value="" style="endArrow=none;html=1;rounded=0;exitX=-0.005;exitY=0.358;exitDx=0;exitDy=0;exitPerimeter=0;entryX=1;entryY=0.358;entryDx=0;entryDy=0;entryPerimeter=0;labelBackgroundColor=none;strokeColor=#457B9D;fontColor=default;" parent="1" source="RjHe8IgNaL4Ij2t6XCh8-150" target="RjHe8IgNaL4Ij2t6XCh8-150" edge="1">
          <mxGeometry relative="1" as="geometry">
            <mxPoint x="710" y="640" as="sourcePoint" />
            <mxPoint x="870" y="640" as="targetPoint" />
          </mxGeometry>
        </mxCell>
        <mxCell id="RjHe8IgNaL4Ij2t6XCh8-154" value="Neighborhood Info&lt;br&gt;&lt;br&gt;&lt;br&gt;Land&lt;br&gt;Vacation homes" style="shape=ext;double=1;rounded=0;whiteSpace=wrap;html=1;labelBackgroundColor=none;fillColor=#A8DADC;strokeColor=#457B9D;fontColor=#1D3557;" parent="1" vertex="1">
          <mxGeometry x="1040" y="640" width="190" height="115" as="geometry" />
        </mxCell>
        <mxCell id="RjHe8IgNaL4Ij2t6XCh8-155" value="" style="endArrow=none;html=1;rounded=0;labelBackgroundColor=none;strokeColor=#457B9D;fontColor=default;" parent="1" target="RjHe8IgNaL4Ij2t6XCh8-154" edge="1">
          <mxGeometry relative="1" as="geometry">
            <mxPoint x="1040" y="690" as="sourcePoint" />
            <mxPoint x="1200" y="690" as="targetPoint" />
          </mxGeometry>
        </mxCell>
        <mxCell id="RjHe8IgNaL4Ij2t6XCh8-156" value="" style="endArrow=none;html=1;rounded=0;labelBackgroundColor=none;strokeColor=#457B9D;fontColor=default;" parent="1" edge="1">
          <mxGeometry relative="1" as="geometry">
            <mxPoint x="1040" y="700" as="sourcePoint" />
            <mxPoint x="1230" y="700" as="targetPoint" />
          </mxGeometry>
        </mxCell>
        <mxCell id="RjHe8IgNaL4Ij2t6XCh8-157" value="" style="endArrow=none;html=1;rounded=0;dashed=1;dashPattern=1 2;strokeColor=#457B9D;fontColor=default;fillColor=#A8DADC;labelBackgroundColor=none;" parent="1" edge="1">
          <mxGeometry relative="1" as="geometry">
            <mxPoint x="1090" y="549.56" as="sourcePoint" />
            <mxPoint x="1160" y="549.56" as="targetPoint" />
          </mxGeometry>
        </mxCell>
        <mxCell id="RjHe8IgNaL4Ij2t6XCh8-158" value="" style="resizable=0;html=1;whiteSpace=wrap;align=right;verticalAlign=bottom;strokeColor=#457B9D;fontColor=#1D3557;fillColor=#A8DADC;labelBackgroundColor=none;" parent="RjHe8IgNaL4Ij2t6XCh8-157" connectable="0" vertex="1">
          <mxGeometry x="1" relative="1" as="geometry" />
        </mxCell>
        <mxCell id="RjHe8IgNaL4Ij2t6XCh8-159" value="" style="endArrow=none;html=1;rounded=0;dashed=1;dashPattern=1 2;strokeColor=#457B9D;fontColor=default;fillColor=#A8DADC;labelBackgroundColor=none;" parent="1" edge="1">
          <mxGeometry relative="1" as="geometry">
            <mxPoint x="1080" y="565" as="sourcePoint" />
            <mxPoint x="1170" y="565" as="targetPoint" />
          </mxGeometry>
        </mxCell>
        <mxCell id="RjHe8IgNaL4Ij2t6XCh8-161" value="" style="endArrow=none;html=1;rounded=0;dashed=1;dashPattern=1 2;strokeColor=#457B9D;fontColor=default;fillColor=#A8DADC;labelBackgroundColor=none;" parent="1" edge="1">
          <mxGeometry relative="1" as="geometry">
            <mxPoint x="1110" y="720" as="sourcePoint" />
            <mxPoint x="1160" y="720" as="targetPoint" />
          </mxGeometry>
        </mxCell>
        <mxCell id="RjHe8IgNaL4Ij2t6XCh8-163" value="" style="endArrow=none;html=1;rounded=0;dashed=1;dashPattern=1 2;strokeColor=#457B9D;fontColor=default;fillColor=#A8DADC;labelBackgroundColor=none;" parent="1" edge="1">
          <mxGeometry relative="1" as="geometry">
            <mxPoint x="1090" y="739.56" as="sourcePoint" />
            <mxPoint x="1180" y="739.56" as="targetPoint" />
          </mxGeometry>
        </mxCell>
        <mxCell id="RjHe8IgNaL4Ij2t6XCh8-168" value="" style="shape=link;html=1;rounded=0;strokeColor=#457B9D;fontColor=default;fillColor=#A8DADC;exitX=0.5;exitY=1;exitDx=0;exitDy=0;entryX=0.5;entryY=0;entryDx=0;entryDy=0;labelBackgroundColor=none;" parent="1" source="RjHe8IgNaL4Ij2t6XCh8-43" target="RjHe8IgNaL4Ij2t6XCh8-16" edge="1">
          <mxGeometry relative="1" as="geometry">
            <mxPoint x="100" y="460" as="sourcePoint" />
            <mxPoint x="260" y="460" as="targetPoint" />
          </mxGeometry>
        </mxCell>
        <mxCell id="HbPjnHL6BBJNbYbjvd7j-1" value="Login" style="swimlane;childLayout=stackLayout;horizontal=1;startSize=50;horizontalStack=0;rounded=1;fontSize=14;fontStyle=0;strokeWidth=2;resizeParent=0;resizeLast=1;shadow=0;dashed=0;align=center;arcSize=4;whiteSpace=wrap;html=1;labelBackgroundColor=none;fillColor=#A8DADC;strokeColor=#457B9D;fontColor=#1D3557;" vertex="1" parent="1">
          <mxGeometry x="-490" y="-240" width="160" height="120" as="geometry" />
        </mxCell>
        <mxCell id="HbPjnHL6BBJNbYbjvd7j-2" value="&lt;u&gt;UserID&lt;/u&gt;&lt;br&gt;Password" style="align=left;strokeColor=none;fillColor=none;spacingLeft=4;fontSize=12;verticalAlign=top;resizable=0;rotatable=0;part=1;html=1;labelBackgroundColor=none;fontColor=#1D3557;" vertex="1" parent="HbPjnHL6BBJNbYbjvd7j-1">
          <mxGeometry y="50" width="160" height="70" as="geometry" />
        </mxCell>
        <mxCell id="HbPjnHL6BBJNbYbjvd7j-3" value="Address" style="swimlane;childLayout=stackLayout;horizontal=1;startSize=50;horizontalStack=0;rounded=1;fontSize=14;fontStyle=0;strokeWidth=2;resizeParent=0;resizeLast=1;shadow=0;dashed=0;align=center;arcSize=4;whiteSpace=wrap;html=1;labelBackgroundColor=none;fillColor=#A8DADC;strokeColor=#457B9D;fontColor=#1D3557;" vertex="1" parent="1">
          <mxGeometry x="710" y="-240" width="160" height="120" as="geometry" />
        </mxCell>
        <mxCell id="HbPjnHL6BBJNbYbjvd7j-4" value="&lt;u&gt;AddressID&lt;br&gt;&lt;/u&gt;City&lt;br&gt;State&lt;br&gt;zip_code" style="align=left;strokeColor=none;fillColor=none;spacingLeft=4;fontSize=12;verticalAlign=top;resizable=0;rotatable=0;part=1;html=1;labelBackgroundColor=none;fontColor=#1D3557;" vertex="1" parent="HbPjnHL6BBJNbYbjvd7j-3">
          <mxGeometry y="50" width="160" height="70" as="geometry" />
        </mxCell>
        <mxCell id="HbPjnHL6BBJNbYbjvd7j-6" value="For" style="shape=rhombus;perimeter=rhombusPerimeter;whiteSpace=wrap;html=1;align=center;labelBackgroundColor=none;fillColor=#A8DADC;strokeColor=#457B9D;fontColor=#1D3557;" vertex="1" parent="1">
          <mxGeometry x="-170" y="-200" width="120" height="60" as="geometry" />
        </mxCell>
        <mxCell id="HbPjnHL6BBJNbYbjvd7j-7" value="" style="endArrow=classic;html=1;rounded=0;exitX=1;exitY=0.5;exitDx=0;exitDy=0;entryX=0;entryY=0.25;entryDx=0;entryDy=0;labelBackgroundColor=none;strokeColor=#457B9D;fontColor=default;" edge="1" parent="1" source="HbPjnHL6BBJNbYbjvd7j-6" target="RjHe8IgNaL4Ij2t6XCh8-2">
          <mxGeometry width="50" height="50" relative="1" as="geometry">
            <mxPoint x="10" y="-170" as="sourcePoint" />
            <mxPoint x="60" y="-220" as="targetPoint" />
          </mxGeometry>
        </mxCell>
        <mxCell id="HbPjnHL6BBJNbYbjvd7j-9" value="" style="endArrow=classic;html=1;rounded=0;exitX=0;exitY=0.5;exitDx=0;exitDy=0;labelBackgroundColor=none;strokeColor=#457B9D;fontColor=default;" edge="1" parent="1" source="HbPjnHL6BBJNbYbjvd7j-6">
          <mxGeometry width="50" height="50" relative="1" as="geometry">
            <mxPoint x="-70" y="190" as="sourcePoint" />
            <mxPoint x="-330" y="-170" as="targetPoint" />
          </mxGeometry>
        </mxCell>
        <mxCell id="HbPjnHL6BBJNbYbjvd7j-17" value="" style="endArrow=classic;html=1;rounded=0;exitX=1;exitY=0.5;exitDx=0;exitDy=0;entryX=0;entryY=0;entryDx=0;entryDy=0;labelBackgroundColor=none;strokeColor=#457B9D;fontColor=default;" edge="1" parent="1" source="RjHe8IgNaL4Ij2t6XCh8-107" target="RjHe8IgNaL4Ij2t6XCh8-7">
          <mxGeometry width="50" height="50" relative="1" as="geometry">
            <mxPoint x="-180" y="470" as="sourcePoint" />
            <mxPoint x="-130" y="420" as="targetPoint" />
          </mxGeometry>
        </mxCell>
        <mxCell id="HbPjnHL6BBJNbYbjvd7j-18" value="" style="endArrow=classic;html=1;rounded=0;exitX=1;exitY=0.5;exitDx=0;exitDy=0;entryX=0;entryY=0;entryDx=0;entryDy=0;labelBackgroundColor=none;strokeColor=#457B9D;fontColor=default;" edge="1" parent="1" source="HbPjnHL6BBJNbYbjvd7j-28" target="RjHe8IgNaL4Ij2t6XCh8-8">
          <mxGeometry width="50" height="50" relative="1" as="geometry">
            <mxPoint x="-670" y="130" as="sourcePoint" />
            <mxPoint x="-130" y="420" as="targetPoint" />
          </mxGeometry>
        </mxCell>
        <mxCell id="HbPjnHL6BBJNbYbjvd7j-19" value="Has" style="shape=rhombus;perimeter=rhombusPerimeter;whiteSpace=wrap;html=1;align=center;labelBackgroundColor=none;fillColor=#A8DADC;strokeColor=#457B9D;fontColor=#1D3557;" vertex="1" parent="1">
          <mxGeometry x="420" y="-200" width="114" height="60" as="geometry" />
        </mxCell>
        <mxCell id="HbPjnHL6BBJNbYbjvd7j-22" value="" style="shape=link;html=1;rounded=0;entryX=0;entryY=0.25;entryDx=0;entryDy=0;labelBackgroundColor=none;strokeColor=#457B9D;fontColor=default;" edge="1" parent="1" target="HbPjnHL6BBJNbYbjvd7j-4">
          <mxGeometry relative="1" as="geometry">
            <mxPoint x="530" y="-170" as="sourcePoint" />
            <mxPoint x="690" y="-170" as="targetPoint" />
          </mxGeometry>
        </mxCell>
        <mxCell id="HbPjnHL6BBJNbYbjvd7j-26" value="" style="endArrow=classic;html=1;rounded=0;entryX=1;entryY=0.25;entryDx=0;entryDy=0;exitX=0;exitY=0.5;exitDx=0;exitDy=0;labelBackgroundColor=none;strokeColor=#457B9D;fontColor=default;" edge="1" parent="1" source="HbPjnHL6BBJNbYbjvd7j-19" target="RjHe8IgNaL4Ij2t6XCh8-2">
          <mxGeometry width="50" height="50" relative="1" as="geometry">
            <mxPoint x="500" y="60" as="sourcePoint" />
            <mxPoint x="550" y="10" as="targetPoint" />
          </mxGeometry>
        </mxCell>
        <mxCell id="HbPjnHL6BBJNbYbjvd7j-27" value="" style="endArrow=classic;html=1;rounded=0;entryX=0;entryY=0.75;entryDx=0;entryDy=0;exitX=0.5;exitY=0;exitDx=0;exitDy=0;labelBackgroundColor=none;strokeColor=#457B9D;fontColor=default;" edge="1" parent="1" source="RjHe8IgNaL4Ij2t6XCh8-72" target="RjHe8IgNaL4Ij2t6XCh8-8">
          <mxGeometry width="50" height="50" relative="1" as="geometry">
            <mxPoint x="-560" y="500" as="sourcePoint" />
            <mxPoint x="-510" y="450" as="targetPoint" />
          </mxGeometry>
        </mxCell>
        <mxCell id="HbPjnHL6BBJNbYbjvd7j-28" value="CardDetails" style="shape=rhombus;double=1;perimeter=rhombusPerimeter;whiteSpace=wrap;html=1;align=center;labelBackgroundColor=none;fillColor=#A8DADC;strokeColor=#457B9D;fontColor=#1D3557;" vertex="1" parent="1">
          <mxGeometry x="-790" y="100" width="120" height="60" as="geometry" />
        </mxCell>
        <mxCell id="HbPjnHL6BBJNbYbjvd7j-29" value="Credit Card&lt;br&gt;&lt;br&gt;&lt;br&gt;CreditcardNumber&lt;br&gt;Name&lt;br&gt;Expiry Date&lt;br&gt;CVV&lt;br&gt;Billing_Address" style="shape=ext;double=1;rounded=0;whiteSpace=wrap;html=1;labelBackgroundColor=none;fillColor=#A8DADC;strokeColor=#457B9D;fontColor=#1D3557;" vertex="1" parent="1">
          <mxGeometry x="-810" y="370" width="190" height="140" as="geometry" />
        </mxCell>
        <mxCell id="HbPjnHL6BBJNbYbjvd7j-30" value="" style="endArrow=none;html=1;rounded=0;exitX=-0.011;exitY=0.353;exitDx=0;exitDy=0;exitPerimeter=0;entryX=0.999;entryY=0.343;entryDx=0;entryDy=0;entryPerimeter=0;labelBackgroundColor=none;strokeColor=#457B9D;fontColor=default;" edge="1" parent="1" source="HbPjnHL6BBJNbYbjvd7j-29" target="HbPjnHL6BBJNbYbjvd7j-29">
          <mxGeometry width="50" height="50" relative="1" as="geometry">
            <mxPoint x="-370" y="410" as="sourcePoint" />
            <mxPoint x="-320" y="360" as="targetPoint" />
          </mxGeometry>
        </mxCell>
        <mxCell id="HbPjnHL6BBJNbYbjvd7j-34" value="" style="endArrow=none;html=1;rounded=0;dashed=1;dashPattern=1 2;strokeColor=#457B9D;fontColor=default;fillColor=#A8DADC;labelBackgroundColor=none;" edge="1" parent="1">
          <mxGeometry relative="1" as="geometry">
            <mxPoint x="-790" y="439.23" as="sourcePoint" />
            <mxPoint x="-640" y="440" as="targetPoint" />
          </mxGeometry>
        </mxCell>
        <mxCell id="HbPjnHL6BBJNbYbjvd7j-35" value="" style="resizable=0;html=1;whiteSpace=wrap;align=right;verticalAlign=bottom;strokeColor=#457B9D;fontColor=#1D3557;fillColor=#A8DADC;labelBackgroundColor=none;" connectable="0" vertex="1" parent="HbPjnHL6BBJNbYbjvd7j-34">
          <mxGeometry x="1" relative="1" as="geometry" />
        </mxCell>
        <mxCell id="HbPjnHL6BBJNbYbjvd7j-39" value="&lt;b&gt;&lt;font style=&quot;font-size: 36px;&quot;&gt;Real Estate Management&lt;/font&gt;&lt;/b&gt;" style="text;html=1;strokeColor=none;fillColor=none;align=center;verticalAlign=middle;whiteSpace=wrap;rounded=0;fontColor=#1D3557;" vertex="1" parent="1">
          <mxGeometry x="-230" y="-740" width="500" height="210" as="geometry" />
        </mxCell>
        <mxCell id="HbPjnHL6BBJNbYbjvd7j-40" value="&lt;font style=&quot;font-size: 20px;&quot;&gt;Group 18&amp;nbsp;&lt;br&gt;Phase 1(ER Diagram)&lt;/font&gt;" style="text;html=1;strokeColor=none;fillColor=none;align=center;verticalAlign=middle;whiteSpace=wrap;rounded=0;fontColor=#1D3557;" vertex="1" parent="1">
          <mxGeometry x="-80" y="-570" width="200" height="120" as="geometry" />
        </mxCell>
        <mxCell id="HbPjnHL6BBJNbYbjvd7j-41" value="&lt;font style=&quot;font-size: 16px;&quot;&gt;A20513431 SUKHMANI SANDHU&lt;br&gt;A20526650 GAYATHRI CHEKURI&lt;br&gt;A20526648 MANOJ KUMAR YEPURI&amp;nbsp;&lt;/font&gt;" style="text;html=1;strokeColor=none;fillColor=none;align=center;verticalAlign=middle;whiteSpace=wrap;rounded=0;fontColor=#1D3557;" vertex="1" parent="1">
          <mxGeometry x="290" y="-590" width="280" height="150" as="geometry" />
        </mxCell>
      </root>
    </mxGraphModel>
  </diagram>
</mxfile>
